<?xml version="1.0"?>
<svg xmlns="http://www.w3.org/2000/svg" viewBox="0 0 32 32">
    <path style="text-indent:0;text-align:start;line-height:normal;text-transform:none;block-progression:tb;-inkscape-font-specification:Bitstream Vera Sans" d="M 5 5 L 5 6 L 5 26 L 5 27 L 6 27 L 26 27 L 27 27 L 27 26 L 27 6 L 27 5 L 26 5 L 6 5 L 5 5 z M 7 7 L 9.84375 7 C 9.4834927 8.4075952 8.4075952 9.4834927 7 9.84375 L 7 7 z M 11.90625 7 L 20.09375 7 C 20.51465 9.5125788 22.487421 11.48535 25 11.90625 L 25 20.09375 C 22.487421 20.51465 20.51465 22.487421 20.09375 25 L 11.90625 25 C 11.48535 22.487421 9.5125788 20.51465 7 20.09375 L 7 11.90625 C 9.5125788 11.48535 11.48535 9.5125788 11.90625 7 z M 22.15625 7 L 25 7 L 25 9.84375 C 23.592405 9.4834927 22.516507 8.4075952 22.15625 7 z M 11 11 L 11 12 L 11 20 L 11 21 L 12 21 L 20 21 L 21 21 L 21 20 L 21 12 L 21 11 L 20 11 L 12 11 L 11 11 z M 13 13 L 15 13 L 15 15 L 13 15 L 13 13 z M 17 13 L 19 13 L 19 15 L 17 15 L 17 13 z M 13 17 L 15 17 L 15 19 L 13 19 L 13 17 z M 17 17 L 19 17 L 19 19 L 17 19 L 17 17 z M 7 22.15625 C 8.4075952 22.516507 9.4834927 23.592405 9.84375 25 L 7 25 L 7 22.15625 z M 25 22.15625 L 25 25 L 22.15625 25 C 22.516507 23.592405 23.592405 22.516507 25 22.15625 z"/>
</svg>
