<?xml version="1.0"?>
<svg xmlns="http://www.w3.org/2000/svg" viewBox="0 0 24 24" enable-background="new 0 0 24 24">
    <path d="M 16.5 0 C 15.657143 0 14.729178 0.17231126 13.84375 0.5625 C 13.097094 0.89153507 12.407214 1.4557502 11.90625 2.1875 C 11.018057 2.287066 10.137739 2.4340223 9.46875 2.90625 C 8.6358653 3.4941686 8 4.4190476 8 5.5 L 10 5.5 C 10 5.1809524 10.182885 4.8433314 10.625 4.53125 C 11.067115 4.2191686 11.742982 4 12.5 4 L 13.125 4 L 13.40625 3.4375 C 13.619956 3.0100873 14.066678 2.6348113 14.65625 2.375 C 15.245822 2.1151887 15.942857 2 16.5 2 L 16.5 0 z M 20 1.5 C 20 1.7813725 19.637437 2.3009839 18.8125 2.75 C 17.987563 3.1990161 16.843651 3.5 16 3.5 L 16 5.5 C 17.256349 5.5 18.599937 5.1572339 19.75 4.53125 C 20.900063 3.9052661 22 2.9186275 22 1.5 L 20 1.5 z M 6 7 L 6 9 L 7 9 L 7 11 L 4 19 L 4 21 L 20 21 L 20 19 L 17 11 L 17 9 L 18 9 L 18 7 L 6 7 z M 14 11.5 C 15.2 12.2 15.90625 13.50625 15.90625 14.90625 L 13.09375 14.90625 C 13.066763 14.536974 12.871473 14.185149 12.59375 14 L 14 11.5 z M 10.09375 11.59375 L 11.5 14.09375 C 11.2 14.29375 11 14.69375 11 15.09375 L 8.09375 15.09375 C 8.09375 13.49375 8.89375 12.19375 10.09375 11.59375 z M 12 14.3125 C 12.4 14.3125 12.6875 14.6 12.6875 15 C 12.6875 15.4 12.4 15.6875 12 15.6875 C 11.6 15.6875 11.3125 15.4 11.3125 15 C 11.3125 14.6 11.6 14.3125 12 14.3125 z M 11.5 15.90625 C 11.7 16.00625 11.8 16.09375 12 16.09375 C 12.2 16.09375 12.4 16.00625 12.5 15.90625 L 13.90625 18.40625 C 13.40625 18.80625 12.7 18.90625 12 18.90625 C 11.3 18.90625 10.59375 18.70625 10.09375 18.40625 L 11.5 15.90625 z"/>
</svg>
