<?xml version="1.0"?>
<svg xmlns="http://www.w3.org/2000/svg" viewBox="0 0 32 32">
    <path style="text-indent:0;text-align:start;line-height:normal;text-transform:none;block-progression:tb;-inkscape-font-specification:Bitstream Vera Sans" d="M 5 6 L 5 7 L 5 25 L 5 26 L 6 26 L 26 26 L 27 26 L 27 25 L 27 7 L 27 6 L 26 6 L 6 6 L 5 6 z M 9 10 L 23 10 L 23 13 L 25 13 L 25 24 L 22 24 L 22 21 L 20 21 L 20 23 L 12 23 L 12 21 L 10 21 L 10 24 L 7 24 L 7 13 L 9 13 L 9 10 z M 10 14 L 10 17 L 15 17 L 15 14 L 10 14 z M 17 14 L 17 17 L 22 17 L 22 14 L 17 14 z M 14 19 L 14 21 L 18 21 L 18 19 L 14 19 z" overflow="visible" font-family="Bitstream Vera Sans"/>
</svg>
